<?xml version="1.0" encoding="utf-8"?>
<!-- Generator: Adobe Illustrator 28.2.0, SVG Export Plug-In . SVG Version: 6.00 Build 0)  -->
<svg version="1.1" xmlns="http://www.w3.org/2000/svg" xmlns:xlink="http://www.w3.org/1999/xlink" x="0px" y="0px"
	 viewBox="0 0 1735 314" style="enable-background:new 0 0 1735 314;" xml:space="preserve">
<style type="text/css">
	.st0{display:none;}
</style>
<g id="Layer_1">
	<g>
		<path d="M53.17,46.32H96v93.29l75.51-93.29h56.02l-86.49,104.4l93.91,120.26h-59.86L96,164.37v106.62H53.17V46.32z"/>
		<path d="M605.9,184.36c0,13.33-1.74,25.6-5.22,36.81c-3.48,11.22-8.65,20.94-15.51,29.19c-6.86,8.25-15.42,14.71-25.67,19.36
			c-10.25,4.65-22.06,6.98-35.42,6.98c-13.55,0-25.45-2.33-35.7-6.98c-10.25-4.65-18.81-11.11-25.67-19.36
			c-6.86-8.25-12.04-17.98-15.51-29.19c-3.48-11.21-5.22-23.48-5.22-36.81V46.32h42.84v136.13c0,6.98,0.96,13.44,2.88,19.36
			c1.92,5.92,4.62,11.06,8.1,15.39c3.48,4.34,7.64,7.72,12.49,10.15c4.85,2.43,10.11,3.65,15.79,3.65c5.67,0,10.89-1.21,15.65-3.65
			c4.76-2.43,8.88-5.82,12.36-10.15c3.48-4.33,6.18-9.46,8.1-15.39c1.92-5.92,2.88-12.38,2.88-19.36V46.32h42.83V184.36z"/>
		<path d="M818.43,46.32h48.88l48.05,147.24h0.55l48.88-147.24h45.86l-80.18,224.66h-34.32L818.43,46.32z"/>
		<path d="M1222.62,46.32h42.83v224.66h-42.83V46.32z"/>
		<path d="M1486.21,158.65c0-17.98,2.61-34.27,7.83-48.87c5.22-14.6,12.49-27.02,21.83-37.29c9.34-10.26,20.41-18.14,33.22-23.64
			c12.81-5.5,26.81-8.25,42.01-8.25c15.19,0,29.2,2.75,42.01,8.25c12.81,5.5,23.89,13.38,33.22,23.64
			c9.34,10.26,16.61,22.69,21.83,37.29c5.22,14.6,7.83,30.89,7.83,48.87c0,17.98-2.61,34.27-7.83,48.87
			c-5.22,14.6-12.49,27.03-21.83,37.29c-9.34,10.26-20.41,18.14-33.22,23.64c-12.82,5.5-26.82,8.25-42.01,8.25
			c-15.2,0-29.2-2.75-42.01-8.25c-12.82-5.5-23.89-13.38-33.22-23.64c-9.34-10.26-16.61-22.69-21.83-37.29
			C1488.82,192.92,1486.21,176.64,1486.21,158.65z M1530.7,158.65c0,10.58,1.42,20.26,4.26,29.03c2.84,8.78,6.91,16.4,12.22,22.85
			c5.31,6.46,11.67,11.48,19.08,15.07c7.41,3.6,15.69,5.39,24.85,5.39c9.15,0,17.44-1.79,24.85-5.39
			c7.41-3.59,13.77-8.62,19.08-15.07c5.31-6.45,9.38-14.07,12.22-22.85c2.84-8.78,4.26-18.45,4.26-29.03
			c0-10.36-1.42-19.99-4.26-28.88c-2.84-8.88-6.91-16.55-12.22-23.01c-5.31-6.45-11.67-11.47-19.08-15.07
			c-7.41-3.59-15.7-5.39-24.85-5.39c-9.16,0-17.44,1.8-24.85,5.39c-7.41,3.6-13.78,8.62-19.08,15.07
			c-5.31,6.46-9.38,14.12-12.22,23.01C1532.11,138.66,1530.7,148.29,1530.7,158.65z"/>
	</g>
</g>
<g id="Layer_2" class="st0">
</g>
<g id="Layer_3" class="st0">
</g>
<g id="Layer_4" class="st0">
</g>
</svg>
