<?xml version="1.0" encoding="utf-8"?>
<!-- Generator: Adobe Illustrator 28.2.0, SVG Export Plug-In . SVG Version: 6.00 Build 0)  -->
<svg version="1.1" id="Layer_1" xmlns="http://www.w3.org/2000/svg" xmlns:xlink="http://www.w3.org/1999/xlink" x="0px" y="0px"
	 viewBox="0 0 1575 1071" style="enable-background:new 0 0 1575 1071;" xml:space="preserve">
<style type="text/css">
	.st0{fill:#F84E21;}
	.st1{fill:#7A6D96;}
	.st2{fill:#F3B8B7;}
	.st3{fill:#178B99;}
	.st4{fill:#473E85;}
	.st5{fill:#FDC108;}
</style>
<g id="muDveL.tif">
	<g>
		<path class="st0" d="M788.8,535c77.36,0,154.72,0.05,232.09-0.12c5.27-0.01,6.82,1.1,6.82,6.65
			c-0.17,154.85-0.16,309.7-0.01,464.54c0.01,5.32-1.14,6.78-6.66,6.77c-155.13-0.17-310.27-0.16-465.4-0.03
			c-4.95,0-6.52-1.05-6.51-6.29c0.15-155.05,0.16-310.11-0.03-465.16c-0.01-5.89,2.07-6.46,7.01-6.46
			C633.67,535.04,711.24,535,788.8,535z"/>
		<path class="st1" d="M291.42,535c77.15,0,154.31,0.09,231.46-0.17c6.44-0.02,7.62,1.84,7.6,7.83
			c-0.21,73.02,0.73,146.06-0.37,219.07c-1.2,78.98-33.55,143.87-94.24,194.27c-37.09,30.79-80.22,48.45-127.89,54.98
			c-8.69,1.19-17.54,1.63-26.31,1.65c-74.08,0.13-148.17,0.02-222.25,0.19c-5.44,0.01-7.17-1.16-7.16-6.95
			c0.17-154.64,0.17-309.28,0.01-463.91c-0.01-5.63,1.47-7.08,7.08-7.07C136.7,535.06,214.06,535,291.42,535z"/>
		<path class="st2" d="M788.83,40.39c77.17,0,154.34,0.07,231.51-0.13c5.84-0.01,7.53,1.41,7.52,7.39
			c-0.2,77.95,0.36,155.9-0.32,233.84c-0.4,45.62-12.94,88.11-37.83,126.73c-24.27,37.67-56.55,66.37-96.66,86.06
			c-25.08,12.31-51.6,19.89-79.6,22.62c-46.97,4.57-91.57-3.16-133.63-24.48c-20.12-10.2-38.35-23.18-54.91-38.68
			c-29.72-27.84-50.81-61.12-63.67-99.53c-7.54-22.52-11.51-45.76-11.46-69.7c0.18-79.18,0.13-158.35-0.07-237.53
			c-0.01-5.63,1.78-6.71,6.99-6.7C634.08,40.44,711.45,40.39,788.83,40.39z"/>
		<path class="st3" d="M1531,774.24c-0.94,136.67-113.08,241.17-244.06,238.72c-125.76-2.35-235.86-105.95-234.24-242.16
			c1.53-128.24,105.37-235.35,238.92-235.74C1423.5,534.67,1531.05,642.39,1531,774.24z"/>
		<path class="st4" d="M531.09,518.28c-3.86,0-6.07,0-8.28,0c-154.13,0-308.26,0.01-462.38-0.02c-9.29,0-8.05,1.07-8.05-8.22
			c-0.03-154.05,0.03-308.1-0.18-462.14c-0.01-6.41,1.8-7.57,7.8-7.56c154.33,0.17,308.67,0.14,463,0.14c2.19,0,4.38,0,7.15,0
			c-0.9,3.37-3.31,4.76-5.06,6.51C449.29,122.79,373.5,198.6,297.54,274.23c-4.12,4.11-4.41,6.08-0.13,10.34
			c76.24,75.91,152.3,152,228.39,228.06C527.2,514.05,528.53,515.54,531.09,518.28z"/>
		<path class="st5" d="M1052.85,42.77c158.53,158.46,317.11,316.96,475.61,475.39c-1.06,0.67-3.13,0.06-5.07,0.06
			c-154.54,0.03-309.08-0.01-463.61,0.18c-6.23,0.01-7.21-1.99-7.2-7.63c0.15-154.25,0.12-308.51,0.15-462.76
			C1052.72,46.07,1052.13,44,1052.85,42.77z"/>
	</g>
</g>
</svg>
