<svg width="104" height="15" viewBox="0 0 104 15" fill="none" xmlns="http://www.w3.org/2000/svg">
<path fill-rule="evenodd" clip-rule="evenodd" d="M100.814 13.743C99.797 14.3556 98.585 14.6618 97.1775 14.6618C95.7699 14.6618 94.5546 14.3556 93.5316 13.743C92.515 13.1305 91.7298 12.2736 91.1759 11.1723C90.6285 10.0711 90.3548 8.79059 90.3548 7.33092C90.3548 5.87125 90.6285 4.59078 91.1759 3.48952C91.7298 2.38825 92.515 1.53135 93.5316 0.918808C94.5546 0.306269 95.7699 0 97.1775 0C98.585 0 99.797 0.306269 100.814 0.918808C101.837 1.53135 102.622 2.38825 103.169 3.48952C103.723 4.59078 104 5.87125 104 7.33092C104 8.79059 103.723 10.0711 103.169 11.1723C102.622 12.2736 101.837 13.1305 100.814 13.743ZM94.1669 10.8302C94.8381 11.6969 95.8416 12.14 97.1775 12.1595C98.5198 12.1791 99.5234 11.7458 100.188 10.8595C100.853 9.97331 101.185 8.7971 101.185 7.33092C101.185 5.86473 100.853 4.6983 100.188 3.83163C99.5234 2.96495 98.5198 2.52184 97.1775 2.50229C95.8416 2.48274 94.8381 2.91608 94.1669 3.8023C93.5022 4.68853 93.1699 5.86473 93.1699 7.33092C93.1699 8.7971 93.5022 9.96353 94.1669 10.8302ZM0 14.3686H2.65868V7.95648L8.26928 14.3686H11.6317L5.37601 7.23316L11.2603 0.293225H8.01514L2.65868 6.78353V0.293225H0V14.3686ZM29.9867 14.6618C31.1206 14.6618 32.1176 14.4338 32.9777 13.9776C33.8379 13.5149 34.5091 12.8666 34.9913 12.0325C35.4735 11.1984 35.7146 10.2177 35.7146 9.09033V0.293225H33.0168V9.07078C33.0168 9.6768 32.8832 10.2111 32.6161 10.6738C32.3489 11.1365 31.9872 11.5014 31.5311 11.7686C31.0749 12.0292 30.5602 12.1595 29.9867 12.1595C29.4263 12.1595 28.9148 12.0325 28.4521 11.7783C27.996 11.5177 27.631 11.156 27.3574 10.6934C27.0902 10.2307 26.9566 9.68983 26.9566 9.07078V0.293225L24.2588 0.312774V9.09033C24.2588 10.2177 24.4999 11.1984 24.9821 12.0325C25.4644 12.8666 26.1355 13.5149 26.9957 13.9776C27.8559 14.4338 28.8529 14.6618 29.9867 14.6618ZM56.7511 14.3686H52.7826L48.4818 0.293225H51.2187L54.7376 11.8663L58.3151 0.293225H61.0519L56.7511 14.3686ZM74.1983 14.3686H76.857V0.293225H74.1983V14.3686Z" fill="white"/>
</svg>
